<?xml version="1.0" encoding="UTF-8"?>
<svg width="530px" height="527px" viewBox="0 0 530 527" version="1.1" xmlns="http://www.w3.org/2000/svg" xmlns:xlink="http://www.w3.org/1999/xlink">
    <!-- Generator: Sketch 46.2 (44496) - http://www.bohemiancoding.com/sketch -->
    <title>polygon</title>
    <desc>Created with Sketch.</desc>
    <defs>
        <path d="M297.5,30.7638837 L449.006351,118.236116 L449.006351,118.236116 C469.117421,129.847248 481.506351,151.305504 481.506351,174.527767 L481.506351,349.472233 L481.506351,349.472233 C481.506351,372.694496 469.117421,394.152752 449.006351,405.763884 L297.5,493.236116 L297.5,493.236116 C277.38893,504.847248 252.61107,504.847248 232.5,493.236116 L80.9936491,405.763884 L80.9936491,405.763884 C60.8825791,394.152752 48.4936491,372.694496 48.4936491,349.472233 L48.4936491,174.527767 L48.4936491,174.527767 C48.4936491,151.305504 60.8825791,129.847248 80.9936491,118.236116 L232.5,30.7638837 L232.5,30.7638837 C252.61107,19.1527521 277.38893,19.1527521 297.5,30.7638837 Z" id="path-1"></path>
        <filter x="-9.5%" y="-9.1%" width="119.0%" height="119.0%" filterUnits="objectBoundingBox" id="filter-2">
            <feOffset dx="0" dy="2" in="SourceAlpha" result="shadowOffsetOuter1"></feOffset>
            <feGaussianBlur stdDeviation="15.5" in="shadowOffsetOuter1" result="shadowBlurOuter1"></feGaussianBlur>
            <feColorMatrix values="0 0 0 0 0.133333333   0 0 0 0 0.192156863   0 0 0 0 0.247058824  0 0 0 1 0" type="matrix" in="shadowBlurOuter1"></feColorMatrix>
        </filter>
    </defs>
    <g id="icons" stroke="none" stroke-width="1" fill="none" fill-rule="evenodd">
        <g id="polygon" transform="translate(265.000000, 262.000000) rotate(-16.000000) translate(-265.000000, -262.000000) ">
            <use fill="black" fill-opacity="1" filter="url(#filter-2)" xlink:href="#path-1"></use>
            <use fill="#22313F" fill-rule="evenodd" xlink:href="#path-1"></use>
        </g>
    </g>
</svg>